<svg xmlns="http://www.w3.org/2000/svg" viewBox="0 0 48 48" fill="currentColor">
  <!-- Plains — Radiant sun with 8 pointed rays -->
  <circle cx="24" cy="24" r="7"/>
  <polygon points="24,2 26,14 24,11 22,14"/>
  <polygon points="24,46 22,34 24,37 26,34"/>
  <polygon points="2,24 14,22 11,24 14,26"/>
  <polygon points="46,24 34,26 37,24 34,22"/>
  <polygon points="8.4,8.4 17.2,16 15.6,15.6 16,17.2"/>
  <polygon points="39.6,39.6 30.8,32 32.4,32.4 32,30.8"/>
  <polygon points="39.6,8.4 32,17.2 32.4,15.6 30.8,16"/>
  <polygon points="8.4,39.6 17.2,32 15.6,32.4 16,30.8"/>
</svg>
