<svg xmlns="http://www.w3.org/2000/svg" viewBox="0 0 32 32" fill="none" stroke="currentColor" stroke-width="2" stroke-linecap="round">
  <!-- Hourglass timer -->
  <path d="M8 4h16M8 28h16" stroke-width="2.5"/>
  <path d="M10 4v4c0 4 2 6 6 8-4 2-6 4-6 8v4h12v-4c0-4-2-6-6-8 4-2 6-4 6-8V4" fill="currentColor" opacity="0.15"/>
  <path d="M10 4v4c0 4 2 6 6 8-4 2-6 4-6 8v4h12v-4c0-4-2-6-6-8 4-2 6-4 6-8V4"/>
  <!-- Sand -->
  <path d="M13 24c0-2 1.5-3 3-4 1.5 1 3 2 3 4v2h-6z" fill="currentColor" stroke="none" opacity="0.5"/>
</svg>
