<svg xmlns="http://www.w3.org/2000/svg" viewBox="0 0 64 64" fill="currentColor">
  <!-- Death by 0 life — Skull and crossbones -->
  <!-- Skull -->
  <path d="M32 6C20 6 12 16 12 26c0 7 3 12 8 16v4a3 3 0 0 0 3 3h18a3 3 0 0 0 3-3v-4c5-4 8-9 8-16 0-10-8-20-20-20z"/>
  <ellipse cx="25" cy="24" rx="5" ry="6" fill="#1a1a2e"/>
  <ellipse cx="39" cy="24" rx="5" ry="6" fill="#1a1a2e"/>
  <path d="M28 35v6M32 35v6M36 35v6" stroke="#1a1a2e" stroke-width="2" stroke-linecap="round"/>
  <path d="M29 32h6" stroke="#1a1a2e" stroke-width="2" stroke-linecap="round"/>
  <!-- Crossbones -->
  <path d="M10 50L26 38M26 50L10 38" stroke="currentColor" stroke-width="4" stroke-linecap="round"/>
  <path d="M38 50L54 38M54 50L38 38" stroke="currentColor" stroke-width="4" stroke-linecap="round"/>
  <circle cx="10" cy="38" r="3"/><circle cx="10" cy="50" r="3"/>
  <circle cx="26" cy="38" r="3"/><circle cx="26" cy="50" r="3"/>
  <circle cx="38" cy="38" r="3"/><circle cx="38" cy="50" r="3"/>
  <circle cx="54" cy="38" r="3"/><circle cx="54" cy="50" r="3"/>
</svg>
